<svg xmlns="http://www.w3.org/2000/svg" viewBox="0 0 960 720" role="img" aria-label="Kai Orbit neon music story">
  <defs>
    <linearGradient id="night" x1="0" x2="1" y1="0" y2="1">
      <stop offset="0" stop-color="#020617"/>
      <stop offset=".58" stop-color="#312e81"/>
      <stop offset="1" stop-color="#0891b2"/>
    </linearGradient>
  </defs>
  <rect width="960" height="720" fill="url(#night)"/>
  <path d="M80 160h160v410H80zM310 240h126v330H310zM514 120h180v450H514zM752 210h130v360H752z" fill="#0f172a" opacity=".92"/>
  <path d="M108 202h92M108 260h92M108 318h92M536 176h120M536 244h120M536 312h120M536 380h120" stroke="#22d3ee" stroke-width="10" opacity=".85"/>
  <path d="M0 590h960v130H0z" fill="#020617"/>
  <path d="M0 650c160-42 320-42 480 0s320 42 480 0" stroke="#a855f7" stroke-width="14" fill="none"/>
  <circle cx="738" cy="142" r="44" fill="#f0abfc" opacity=".85"/>
  <path d="M418 498h130l34 92H384z" fill="#22d3ee" opacity=".75"/>
</svg>
