<svg xmlns="http://www.w3.org/2000/svg" viewBox="0 0 240 240" role="img" aria-label="Lena Vale avatar">
  <defs>
    <linearGradient id="bg" x1="0" x2="1" y1="0" y2="1">
      <stop offset="0" stop-color="#f8fafc"/>
      <stop offset=".65" stop-color="#cbd5e1"/>
      <stop offset="1" stop-color="#334155"/>
    </linearGradient>
  </defs>
  <rect width="240" height="240" rx="64" fill="url(#bg)"/>
  <path d="M58 199c6-46 30-70 62-70 33 0 57 24 63 70z" fill="#111827"/>
  <circle cx="120" cy="98" r="43" fill="#f1d7c7"/>
  <path d="M77 91c0-34 19-54 52-58 19 8 31 22 36 42-30-7-59-2-88 16z" fill="#0f172a"/>
  <path d="M82 89c-8 29-4 55 13 78-28-8-38-28-30-61 3-12 9-18 17-17z" fill="#0f172a"/>
  <circle cx="103" cy="101" r="4" fill="#0f172a"/>
  <circle cx="138" cy="101" r="4" fill="#0f172a"/>
  <path d="M108 123c10 5 20 5 30 0" stroke="#be123c" stroke-width="5" stroke-linecap="round" fill="none"/>
  <path d="M84 161h72" stroke="#f8fafc" stroke-width="8" stroke-linecap="round"/>
</svg>
