<svg xmlns="http://www.w3.org/2000/svg" viewBox="0 0 960 720" role="img" aria-label="Mira Solis travel story">
  <defs>
    <linearGradient id="sky" x1="0" x2="0" y1="0" y2="1">
      <stop offset="0" stop-color="#fb7185"/>
      <stop offset=".55" stop-color="#fdba74"/>
      <stop offset="1" stop-color="#fef3c7"/>
    </linearGradient>
  </defs>
  <rect width="960" height="720" fill="url(#sky)"/>
  <circle cx="748" cy="142" r="78" fill="#fff7ed" opacity=".9"/>
  <path d="M0 500c130-70 260-98 390-84 149 16 247 79 374 58 77-13 142-45 196-87v333H0z" fill="#0f766e" opacity=".75"/>
  <path d="M0 570c175-92 317-99 426-22 111 78 289 54 534-73v245H0z" fill="#134e4a"/>
  <path d="M110 610c88-37 176-37 264 0 124 52 251 52 382 0" stroke="#fef3c7" stroke-width="18" fill="none" opacity=".75"/>
  <path d="M492 399l48 185h-96z" fill="#78350f"/>
  <path d="M416 398c48-68 96-86 144-54-25 7-42 32-51 75-30-29-61-36-93-21z" fill="#166534"/>
</svg>
