<svg xmlns="http://www.w3.org/2000/svg" viewBox="0 0 240 240" role="img" aria-label="Mira Solis avatar">
  <defs>
    <linearGradient id="bg" x1="0" x2="1" y1="0" y2="1">
      <stop offset="0" stop-color="#f97316"/>
      <stop offset="0.52" stop-color="#fb7185"/>
      <stop offset="1" stop-color="#fde68a"/>
    </linearGradient>
  </defs>
  <rect width="240" height="240" rx="64" fill="url(#bg)"/>
  <circle cx="178" cy="52" r="22" fill="#fff7ed" opacity=".7"/>
  <path d="M62 196c7-43 31-66 58-66s51 23 58 66" fill="#7c2d12"/>
  <circle cx="120" cy="98" r="43" fill="#fde0c5"/>
  <path d="M77 95c3-46 32-62 56-52 25 10 35 33 28 60-19-23-50-13-84-8z" fill="#3b2418"/>
  <path d="M87 106c10 19 23 28 39 27 18-1 30-11 39-30-21 10-49 12-78 3z" fill="#3b2418" opacity=".18"/>
  <circle cx="103" cy="101" r="5" fill="#3b2418"/>
  <circle cx="137" cy="101" r="5" fill="#3b2418"/>
  <path d="M107 121c9 7 18 7 27 0" stroke="#9f1239" stroke-width="5" stroke-linecap="round" fill="none"/>
</svg>
