<svg xmlns="http://www.w3.org/2000/svg" viewBox="0 0 240 240" role="img" aria-label="Zane Byte avatar">
  <defs>
    <linearGradient id="bg" x1="0" x2="1" y1="0" y2="1">
      <stop offset="0" stop-color="#0f172a"/>
      <stop offset=".5" stop-color="#0e7490"/>
      <stop offset="1" stop-color="#f59e0b"/>
    </linearGradient>
  </defs>
  <rect width="240" height="240" rx="64" fill="url(#bg)"/>
  <path d="M48 201c8-46 33-69 74-69 39 0 63 23 70 69z" fill="#172554"/>
  <circle cx="121" cy="98" r="43" fill="#c9956d"/>
  <path d="M80 86c3-28 20-44 51-48 21 8 34 23 39 46-28-12-58-11-90 2z" fill="#111827"/>
  <rect x="88" y="96" width="29" height="18" rx="6" fill="#ecfeff" opacity=".75"/>
  <rect x="127" y="96" width="29" height="18" rx="6" fill="#ecfeff" opacity=".75"/>
  <path d="M117 105h10" stroke="#111827" stroke-width="4" stroke-linecap="round"/>
  <path d="M106 124c11 6 23 6 34 0" stroke="#7c2d12" stroke-width="5" stroke-linecap="round" fill="none"/>
</svg>
